<svg width="20" height="20" viewBox="0 0 20 20" fill="none" xmlns="http://www.w3.org/2000/svg">
<path d="M13.3334 17.5V15.8333C13.3334 14.9493 12.9822 14.1014 12.3571 13.4763C11.732 12.8512 10.8841 12.5 10.0001 12.5H5.00008C4.11603 12.5 3.26818 12.8512 2.64306 13.4763C2.01794 14.1014 1.66675 14.9493 1.66675 15.8333V17.5M18.3334 17.5V15.8333C18.3329 15.0948 18.087 14.3773 17.6345 13.7936C17.1821 13.2099 16.5485 12.793 15.8334 12.6083M13.3334 2.60833C14.0504 2.79192 14.6859 3.20892 15.1398 3.79359C15.5936 4.37827 15.8399 5.09736 15.8399 5.8375C15.8399 6.57764 15.5936 7.29673 15.1398 7.88141C14.6859 8.46608 14.0504 8.88308 13.3334 9.06667M10.8334 5.83333C10.8334 7.67428 9.34103 9.16667 7.50008 9.16667C5.65913 9.16667 4.16675 7.67428 4.16675 5.83333C4.16675 3.99238 5.65913 2.5 7.50008 2.5C9.34103 2.5 10.8334 3.99238 10.8334 5.83333Z" stroke="#C9DDFF" stroke-width="2" stroke-linecap="round" stroke-linejoin="round"/>
</svg>
